<?xml version="1.0" encoding="UTF-8"?>
<svg id="Layer_2" data-name="Layer 2" xmlns="http://www.w3.org/2000/svg" viewBox="0 0 383.2 239.2">
  <defs>
    <style>
      .cls-1 {
        fill: #121212;
      }
    </style>
  </defs>
  <g id="Layer_2-2" data-name="Layer 2">
    <path class="cls-1" d="m383.2,85.6l-106.8-7.2-.4-34h11.2v-23.6L153.2,0,0,28.8v30l13.6-2.4-.8,82.4h41.6v77.2l194.8,23.2,35.2-4.4v-98l60.8-.8.8,91.2,28-3.2-.4-119.2h9.6v-19.2ZM34.8,118v-57.2l92-10.8v65.6l-92,2.4Zm76,82.8l-37.6-2v-60h37.6v62Zm54.4,5.2l-44.8-3.6v-63.6h44.8v67.2Zm60.4,6.4l-51.2-5.2v-68.4h51.2v73.6Zm37.6-126.4h-40.8v-34l40.8,3.6v30.4Z"/>
  </g>
</svg>